<svg xmlns="http://www.w3.org/2000/svg" viewBox="0 0 350 89"><defs><style>.cls-1{fill:none;stroke:#000;stroke-miterlimit:10;}</style></defs><g id="레이어_2" data-name="레이어 2"><g id="레이어_1-2" data-name="레이어 1"><path d="M25.59,21.39h15a22.29,22.29,0,0,1,10,2q5.52,2.79,5.51,9.28A10.69,10.69,0,0,1,53.61,40c-1.67,1.89-4.33,3.4-8,4.52q1,.41,1.74.78a4.75,4.75,0,0,1,1.22.85,11.38,11.38,0,0,1,3.19,5.1l5.8,15.66H52.39l-3-9.51Q47,50.21,44.39,48q-2.27-2.09-7.49-2.09H30.18V66.86H25.59Zm15.9,4H30.18V42.32h7a27.21,27.21,0,0,0,7-.78A10.52,10.52,0,0,0,48.85,39a8.74,8.74,0,0,0,2-2.73,7.41,7.41,0,0,0,.79-3.3A6.48,6.48,0,0,0,49,27.71,11.55,11.55,0,0,0,41.49,25.39Z"/><path d="M89.74,50.1H66.14q0,6.66,3.1,10.18a10.34,10.34,0,0,0,8.15,3.5,12.8,12.8,0,0,0,7.36-2.43,18.57,18.57,0,0,0,2.09-1.6c.74-.63,1.53-1.38,2.38-2.23v5c-.93.69-1.79,1.3-2.58,1.82a21.29,21.29,0,0,1-2.23,1.31,15.61,15.61,0,0,1-7.31,1.91,14.7,14.7,0,0,1-10.73-4.35,15.76,15.76,0,0,1-4.76-11.89A16.36,16.36,0,0,1,65.9,39.83a14.06,14.06,0,0,1,10.73-4.7,12,12,0,0,1,9.86,4.53A16.3,16.3,0,0,1,89.74,50.1Zm-23-3.54H84.87a9.58,9.58,0,0,0-3-5.89,8.3,8.3,0,0,0-5.54-1.94A8.75,8.75,0,0,0,70.25,41,13.19,13.19,0,0,0,66.72,46.56Z"/><path d="M118.45,46.79V61.41a3.27,3.27,0,0,0,.44,1.71,1.7,1.7,0,0,0,1.59.72,4.62,4.62,0,0,0,.58,0,2.57,2.57,0,0,0,.47-.08l.6-.23.44-.18v3.25a11.29,11.29,0,0,1-2.09.49,12.18,12.18,0,0,1-1.62.15c-2,0-3.27-.52-3.89-1.57q-.75-1-.75-4.23a22.05,22.05,0,0,1-1.51,2.23,10.58,10.58,0,0,1-1.51,1.59,11,11,0,0,1-7,2.38,11.48,11.48,0,0,1-7.36-2.49,8.39,8.39,0,0,1-3.25-6.79q0-5.16,5.22-7.6a23.88,23.88,0,0,1,5.07-1.62c2.11-.46,4.64-.89,7.57-1.27l2.79-.29a9.2,9.2,0,0,0-2.06-6.36,7.75,7.75,0,0,0-6.06-2.29,12.13,12.13,0,0,0-3,.38,13.21,13.21,0,0,0-3,1.19c-.54.31-1.14.68-1.79,1.1a22,22,0,0,0-2.15,1.62V38.44a18.65,18.65,0,0,1,10.61-3.31q5.8,0,8.94,3.66A11.9,11.9,0,0,1,118.45,46.79Zm-4.23,6.09V51l-2,.24Q105,52,102,53.29q-3.95,1.56-4,5.1a4.52,4.52,0,0,0,.47,2,5.69,5.69,0,0,0,1.27,1.71,6.24,6.24,0,0,0,2,1.22,7.25,7.25,0,0,0,2.64.46,9.18,9.18,0,0,0,6.91-3.18A11.37,11.37,0,0,0,114.22,52.88Z"/><path d="M126.51,64.19v-5a22.58,22.58,0,0,0,7.31,4.06,19.94,19.94,0,0,0,2.15.43,15,15,0,0,0,2.14.14A10,10,0,0,0,144,62.16a4.86,4.86,0,0,0,2.38-3.89,4.08,4.08,0,0,0-.87-2.37q-1.22-1.51-6.5-2.73a47.82,47.82,0,0,1-8.35-2.61,7.16,7.16,0,0,1-4.06-6.5,7.61,7.61,0,0,1,3.37-6.37,13.8,13.8,0,0,1,8.52-2.56,19.67,19.67,0,0,1,4.18.41,21.73,21.73,0,0,1,3.48,1.07,15.13,15.13,0,0,1,3,1.66v5a22.12,22.12,0,0,0-5.1-3.22,13.71,13.71,0,0,0-5.63-1.19,9.46,9.46,0,0,0-5.1,1.34,4,4,0,0,0-2.21,3.48q0,2.84,5.22,4.52l4.82,1.39c1.58.47,3.19.93,4.81,1.39q5.28,2.26,5.28,6.85,0,3.89-3.65,6.84a14.5,14.5,0,0,1-9.23,2.9,21.41,21.41,0,0,1-4.75-.52A22.4,22.4,0,0,1,126.51,64.19Z"/><path d="M170.36,67.61a14.7,14.7,0,0,1-10.5-4.35,15.65,15.65,0,0,1-4.81-11.89,16.5,16.5,0,0,1,4.23-11.54,14.53,14.53,0,0,1,21.4,0A16.29,16.29,0,0,1,185,51.31a16.26,16.26,0,0,1-4.64,11.9A13.56,13.56,0,0,1,170.36,67.61ZM170,63.78a9.91,9.91,0,0,0,7.43-3.47,13.07,13.07,0,0,0,3.13-9,12.76,12.76,0,0,0-3.36-9.16A9.57,9.57,0,0,0,170,38.9a9.15,9.15,0,0,0-7.13,3.37,13.31,13.31,0,0,0-3.25,9.1,13.34,13.34,0,0,0,3.19,9.11A9.24,9.24,0,0,0,170,63.78Z"/><path d="M216.64,46.1V66.86h-4.17V46.39a6.8,6.8,0,0,0-2.38-5.34,8.21,8.21,0,0,0-5.68-2.15,9.76,9.76,0,0,0-7.6,3.66,12.46,12.46,0,0,0-3.19,8.35v16h-4v-31h3.66l.17,5.8a15.39,15.39,0,0,1,3.66-3.94,12.52,12.52,0,0,1,7.71-2.56,12,12,0,0,1,8.35,3A10,10,0,0,1,216.64,46.1Z"/><path d="M246.22,46.79V61.41a3.27,3.27,0,0,0,.44,1.71,1.7,1.7,0,0,0,1.59.72,4.51,4.51,0,0,0,.58,0,2.57,2.57,0,0,0,.47-.08l.61-.23.43-.18v3.25a11.11,11.11,0,0,1-2.09.49,12,12,0,0,1-1.62.15c-2,0-3.27-.52-3.89-1.57q-.75-1-.75-4.23a20.51,20.51,0,0,1-1.51,2.23A10.1,10.1,0,0,1,239,65.23a11,11,0,0,1-7,2.38,11.48,11.48,0,0,1-7.37-2.49,8.39,8.39,0,0,1-3.25-6.79q0-5.16,5.22-7.6a23.8,23.8,0,0,1,5.08-1.62c2.1-.46,4.63-.89,7.57-1.27l2.78-.29a9.2,9.2,0,0,0-2.06-6.36,7.75,7.75,0,0,0-6.06-2.29,12.13,12.13,0,0,0-3,.38,13.14,13.14,0,0,0-3,1.19c-.55.31-1.15.68-1.8,1.1A22,22,0,0,0,224,43.19V38.44a18.68,18.68,0,0,1,10.62-3.31q5.79,0,8.93,3.66A11.9,11.9,0,0,1,246.22,46.79ZM242,52.88V51l-2,.24q-7.26.75-10.21,2-3.94,1.56-3.94,5.1a4.51,4.51,0,0,0,.46,2,5.56,5.56,0,0,0,1.28,1.71,6,6,0,0,0,2,1.22,7.17,7.17,0,0,0,2.64.46,9.15,9.15,0,0,0,6.9-3.18A11.37,11.37,0,0,0,242,52.88Z"/><path d="M254.86,21.39h4.24V41.05A18.6,18.6,0,0,1,260.69,39a13.92,13.92,0,0,1,1.6-1.51,11.23,11.23,0,0,1,7-2.32,12.4,12.4,0,0,1,9.91,4.59,16.62,16.62,0,0,1,4,11.25,17.32,17.32,0,0,1-4,11.54,13.44,13.44,0,0,1-10.72,5.1,11.76,11.76,0,0,1-6.15-1.56,12.49,12.49,0,0,1-3.25-2.67L258,66.86h-3.14ZM259.1,50v9a17.28,17.28,0,0,0,1.62,1.74c.54.5,1,.93,1.51,1.28a9.8,9.8,0,0,0,5.8,1.79,9,9,0,0,0,7.37-3.65A14.51,14.51,0,0,0,278.3,51a13,13,0,0,0-3.25-9.1,8.45,8.45,0,0,0-13.23.35A11.62,11.62,0,0,0,259.1,50Z"/><path d="M287.46,21.39h4.18V66.86h-4.18Z"/><path d="M324.41,50.1H300.8q0,6.66,3.1,10.18a10.36,10.36,0,0,0,8.15,3.5,12.85,12.85,0,0,0,7.37-2.43,19.52,19.52,0,0,0,2.09-1.6c.73-.63,1.52-1.38,2.37-2.23v5c-.92.69-1.79,1.3-2.58,1.82a20.31,20.31,0,0,1-2.23,1.31,15.58,15.58,0,0,1-7.31,1.91A14.71,14.71,0,0,1,301,63.26a15.75,15.75,0,0,1-4.75-11.89,16.36,16.36,0,0,1,4.29-11.54,14,14,0,0,1,10.73-4.7,12,12,0,0,1,9.86,4.53A16.35,16.35,0,0,1,324.41,50.1Zm-23-3.54h18.15a9.63,9.63,0,0,0-3-5.89A8.32,8.32,0,0,0,311,38.73,8.72,8.72,0,0,0,304.92,41,13.11,13.11,0,0,0,301.38,46.56Z"/><rect class="cls-1" x="0.5" y="0.5" width="349" height="88"/></g></g></svg>